# xmcd
#
# Track frame offsets: 
#        150
#        15360
#        28925
#        45735
#        57997
#        70800
#        83047
#        96060
#        107975
#        125025
#
# Disc length: 1851 seconds
#
# Revision: 1
# Processed by: cddbd v1.5.2PL0 Copyright (c) Steve Scherf et al.
# Submitted via: ExactAudioCopyFreeDBPlugin 1.0
#
DISCID=8207390a
DTITLE=Conway Twitty and Loretta Lynn - Sing The Hits
DYEAR=1997
DGENRE=Country
TTITLE0=Touch The Hand
TTITLE1=Coal Miner's Daughter
TTITLE2=Don't Take It Away
TTITLE3=Heart Don't Do This To Me
TTITLE4=I May Never Get To Heaven
TTITLE5=Blue Kentucky Girl
TTITLE6=Happy Birthday Darlin'
TTITLE7=One's On The Way
TTITLE8=Crazy In Love
TTITLE9=She's Got You
EXTD=
EXTT0=
EXTT1=
EXTT2=
EXTT3=
EXTT4=
EXTT5=
EXTT6=
EXTT7=
EXTT8=
EXTT9=
PLAYORDER=
